# xmcd
#
# Track frame offsets:
# 150
# 12027
# 22884
# 34073
# 47282
# 58608
# 69983
# 82613
# 96260
# 108031
# 122457
# 139631
# 152405
# 165814
# 178039
# 190439
# 203649
# 215928
# 230432
# 242360
#
# Disc length: 3432 seconds
#
#
# Revision: 1
# Processed by: cddbd v1.5.2PL0 Copyright (c) Steve Scherf et al.
# Submitted via: HACP 1.20
#
DISCID=e80d6614
DTITLE=Stan Getz - Early Autumn (Compilation) CD2
DYEAR=2006
DGENRE=Jazz
TTITLE0=Heyshey Bar
TTITLE1=Imagination
TTITLE2=Out Of Nowhere
TTITLE3='S Wonderful
TTITLE4=Strike Up The Band
TTITLE5=Sweetie Pie
TTITLE6=Yesterdays
TTITLE7=You Go To My Head
TTITLE8=Crazy Chords
TTITLE9=Five Brothers
TTITLE10=Four And One More
TTITLE11=Indian Summer
TTITLE12=Long Island Sound
TTITLE13=Mar-cia
TTITLE14=Prezervation
TTITLE15=Stan Gets Along
TTITLE16=Stan's Mood
TTITLE17=Early Autumn
TTITLE18=Don't Worry 'Bout Me
TTITLE19=Always
EXTD=YEAR: 2006 MasterSong 580 782\n
EXTT0=
EXTT1=
EXTT2=
EXTT3=
EXTT4=
EXTT5=
EXTT6=
EXTT7=
EXTT8=
EXTT9=
EXTT10=
EXTT11=
EXTT12=
EXTT13=
EXTT14=
EXTT15=
EXTT16=
EXTT17=
EXTT18=
EXTT19=
PLAYORDER=
